<?xml version="1.0" encoding="utf-8"?>
<svg xmlns="http://www.w3.org/2000/svg" style="margin: auto; display: block; shape-rendering: auto;" width="290" height="250" preserveAspectRatio="xMidYMid">
<style type="text/css">
  text {
    text-anchor: middle; font-size: 48px; opacity: 0;
  }
</style>
<g transform="matrix(1, 0, 0, 1, 145, 125)">
  <g transform="matrix(1, 0, 0, 1, 0, 0)"><g class="path" style="transform-origin: -71.025px -3.175px 0px; transform: rotate(0deg); animation: 1s linear -0.594s infinite normal forwards running spin-cda7c831-e930-4a3d-994b-c3010004db9a;"><path d="M3.84-32.16L10.66-33.36L9.98-12.48L10.56 0L3.84 0L4.42-11.66L3.84-32.16" fill="#32a0da" stroke="none" stroke-width="none" transform="translate(-78.26669311523438,13.509005218505855)" style="fill: rgb(50, 160, 218);"></path></g><g class="path" style="transform-origin: -51.3417px 1.41665px 0px; transform: rotate(0deg); animation: 1s linear -0.528s infinite normal forwards running spin-cda7c831-e930-4a3d-994b-c3010004db9a;"><path d="M31.20-12.14L31.20-12.14Q31.20-15.46 30.62-16.56L30.62-16.56L30.62-16.56Q30.05-17.66 27.94-17.66L27.94-17.66L27.94-17.66Q25.82-17.66 23.14-15.98L23.14-15.98L23.14-12.48L23.66-1.20L17.23 0L17.81-11.66L17.81-11.66Q17.62-18.10 16.75-23.18L16.75-23.18L22.56-24.43L22.56-24.43Q22.90-21.65 23.04-19.01L23.04-19.01L23.04-19.01Q23.76-19.97 24.67-20.90L24.67-20.90L24.67-20.90Q25.58-21.84 27.55-23.02L27.55-23.02L27.55-23.02Q29.52-24.19 31.70-24.19L31.70-24.19L31.70-24.19Q33.89-24.19 35.38-22.49L35.38-22.49L35.38-22.49Q36.86-20.78 36.86-17.86L36.86-17.86L36.58-12.48L37.10-0.96L30.62 0.24L31.20-12.14" fill="#32a0da" stroke="none" stroke-width="none" transform="translate(-78.26669311523438,13.509005218505855)" style="fill: rgb(50, 160, 218);"></path></g><g class="path" style="transform-origin: -29.8416px -1.35001px 0px; transform: rotate(0deg); animation: 1s linear -0.462s infinite normal forwards running spin-cda7c831-e930-4a3d-994b-c3010004db9a;"><path d="M41.47-23.23L44.26-23.23L44.26-28.46L50.74-29.71L50.11-23.23L55.92-23.23L55.39-19.30L49.92-19.30L49.68-9.26L49.68-9.26Q49.68-7.01 50.11-6.26L50.11-6.26L50.11-6.26Q50.54-5.52 51.70-5.52L51.70-5.52L51.70-5.52Q52.85-5.52 54.77-6.05L54.77-6.05L55.06-2.64L55.06-2.64Q51.89 0 49.49 0L49.49 0L49.49 0Q47.09 0 45.55-1.75L45.55-1.75L45.55-1.75Q44.02-3.50 44.02-6.34L44.02-6.34L44.30-11.71L44.26-19.30L40.94-19.30L41.47-23.23" fill="#32a0da" stroke="none" stroke-width="none" transform="translate(-78.26669311523438,13.509005218505855)" style="fill: rgb(50, 160, 218);"></path></g><g class="path" style="transform-origin: -11px 1.40833px 0px; transform: rotate(0deg); animation: 1s linear -0.396s infinite normal forwards running spin-cda7c831-e930-4a3d-994b-c3010004db9a;"><path d="M68.06-4.90L68.06-4.90L68.06-4.90Q69.46-4.90 70.99-5.62L70.99-5.62L70.99-5.62Q72.53-6.34 73.39-7.06L73.39-7.06L74.26-7.78L76.46-5.09L76.46-5.09Q75.98-4.27 74.98-3.22L74.98-3.22L74.98-3.22Q73.97-2.16 72.94-1.42L72.94-1.42L72.94-1.42Q71.90-0.67 70.20-0.07L70.20-0.07L70.20-0.07Q68.50 0.53 66.67 0.53L66.67 0.53L66.67 0.53Q62.78 0.53 60.34-2.42L60.34-2.42L60.34-2.42Q57.89-5.38 57.89-10.03L57.89-10.03L57.89-10.03Q57.89-15.89 61.30-20.30L61.30-20.30L61.30-20.30Q64.70-24.72 69.26-24.72L69.26-24.72L69.26-24.72Q72.77-24.72 74.71-22.75L74.71-22.75L74.71-22.75Q76.66-20.78 76.66-17.23L76.66-17.23L76.66-17.23Q76.66-15.12 75.94-12.43L75.94-12.43L74.98-11.42L62.98-10.32L62.98-10.32Q63.79-4.90 68.06-4.90zM68.06-19.78L68.06-19.78L68.06-19.78Q65.95-19.78 64.51-18.07L64.51-18.07L64.51-18.07Q63.07-16.37 62.83-13.73L62.83-13.73L70.99-14.74L70.99-14.74Q71.14-15.84 71.14-16.56L71.14-16.56L71.14-16.56Q71.14-19.78 68.06-19.78" fill="#32a0da" stroke="none" stroke-width="none" transform="translate(-78.26669311523438,13.509005218505855)" style="fill: rgb(50, 160, 218);"></path></g><g class="path" style="transform-origin: 9.325px 1.29165px 0px; transform: rotate(0deg); animation: 1s linear -0.33s infinite normal forwards running spin-cda7c831-e930-4a3d-994b-c3010004db9a;"><path d="M80.30-23.18L80.30-23.18L86.11-24.43L86.11-24.43Q86.54-20.74 86.69-17.42L86.69-17.42L86.69-17.42Q91.06-24.19 94.90-24.19L94.90-24.19L94.37-16.70L94.37-16.70Q91.58-16.70 89.98-16.20L89.98-16.20L89.98-16.20Q88.37-15.70 86.69-14.21L86.69-14.21L86.69-12.48L87.22-1.20L80.78 0L81.36-11.66L81.36-11.66Q81.17-18.10 80.30-23.18" fill="#32a0da" stroke="none" stroke-width="none" transform="translate(-78.26669311523438,13.509005218505855)" style="fill: rgb(50, 160, 218);"></path></g><g class="path" style="transform-origin: 26.6px 1.40833px 0px; transform: rotate(0deg); animation: 1s linear -0.264s infinite normal forwards running spin-cda7c831-e930-4a3d-994b-c3010004db9a;"><path d="M106.18-18.48L106.18-18.48L106.18-18.48Q104.06-18.48 102.91-16.97L102.91-16.97L102.91-16.97Q101.76-15.46 101.76-12.34L101.76-12.34L101.76-12.34Q101.76-9.22 102.94-7.32L102.94-7.32L102.94-7.32Q104.11-5.42 106.37-5.42L106.37-5.42L106.37-5.42Q107.52-5.42 108.62-6.14L108.62-6.14L108.62-6.14Q109.73-6.86 110.30-7.58L110.30-7.58L110.83-8.35L113.23-5.86L113.23-5.86Q113.09-5.62 112.87-5.18L112.87-5.18L112.87-5.18Q112.66-4.75 111.82-3.65L111.82-3.65L111.82-3.65Q110.98-2.54 110.04-1.70L110.04-1.70L110.04-1.70Q109.10-0.86 107.62-0.17L107.62-0.17L107.62-0.17Q106.13 0.53 104.50 0.53L104.50 0.53L104.50 0.53Q100.90 0.53 98.64-2.40L98.64-2.40L98.64-2.40Q96.38-5.33 96.38-10.03L96.38-10.03L96.38-10.03Q96.38-15.89 99.79-20.30L99.79-20.30L99.79-20.30Q103.20-24.72 107.76-24.72L107.76-24.72L107.76-24.72Q109.15-24.72 110.54-24.31L110.54-24.31L110.54-24.31Q111.94-23.90 113.38-23.04L113.38-23.04L110.02-17.14L110.02-17.14Q108.29-18.48 106.18-18.48" fill="#32a0da" stroke="none" stroke-width="none" transform="translate(-78.26669311523438,13.509005218505855)" style="fill: rgb(50, 160, 218);"></path></g><g class="path" style="transform-origin: 41.4083px -5.06667px 0px; transform: rotate(0deg); animation: 1s linear -0.198s infinite normal forwards running spin-cda7c831-e930-4a3d-994b-c3010004db9a;"><path d="M116.40-35.95L122.98-37.15L122.35-12.48L122.88-1.20L116.40 0L116.98-11.66L116.40-35.95" fill="#32a0da" stroke="none" stroke-width="none" transform="translate(-78.26669311523438,13.509005218505855)" style="fill: rgb(50, 160, 218);"></path></g><g class="path" style="transform-origin: 53.4667px 1.29165px 0px; transform: rotate(0deg); animation: 1s linear -0.132s infinite normal forwards running spin-cda7c831-e930-4a3d-994b-c3010004db9a;"><path d="M128.54-23.23L134.98-24.43L134.40-12.48L134.93-1.20L128.50 0L129.07-11.66L128.54-23.23" fill="#32a0da" stroke="none" stroke-width="none" transform="translate(-78.26669311523438,13.509005218505855)" style="fill: rgb(50, 160, 218);"></path></g><g class="path" style="transform-origin: 53.675px -18.175px 0px; transform: rotate(0deg); animation: 1s linear -0.066s infinite normal forwards running spin-cda7c831-e930-4a3d-994b-c3010004db9a;"><path d="M128.21-31.46L128.21-31.46L128.21-31.46Q128.21-33.07 129.46-34.34L129.46-34.34L129.46-34.34Q130.70-35.62 132.34-35.62L132.34-35.62L132.34-35.62Q133.97-35.62 134.83-34.73L134.83-34.73L134.83-34.73Q135.70-33.84 135.70-32.06L135.70-32.06L135.70-32.06Q135.70-30.29 134.47-29.02L134.47-29.02L134.47-29.02Q133.25-27.74 131.64-27.74L131.64-27.74L131.64-27.74Q130.03-27.74 129.12-28.80L129.12-28.80L129.12-28.80Q128.21-29.86 128.21-31.46" fill="#32a0da" stroke="none" stroke-width="none" transform="translate(-78.26669311523438,13.509005218505855)" style="fill: rgb(50, 160, 218);"></path></g><g class="path" style="transform-origin: 71.825px 6.40832px 0px; transform: rotate(0deg); animation: 1s linear 0s infinite normal forwards running spin-cda7c831-e930-4a3d-994b-c3010004db9a;"><path d="M153.07-24.24L153.07-24.24L153.07-24.24Q156.14-24.24 158.23-21.55L158.23-21.55L158.23-21.55Q160.32-18.86 160.32-14.30L160.32-14.30L160.32-14.30Q160.32-7.92 157.03-3.96L157.03-3.96L157.03-3.96Q153.74 0 148.85 0L148.85 0L148.85 0Q147.84 0 146.59-0.14L146.59-0.14L146.83 9.02L140.26 10.22L140.88-11.66L140.93-11.66L140.93-11.66Q140.74-18.10 139.87-23.18L139.87-23.18L145.68-24.43L145.68-24.43Q145.97-21.89 146.16-19.39L146.16-19.39L146.16-19.39Q146.26-19.63 147.14-20.71L147.14-20.71L147.14-20.71Q148.03-21.79 149.76-23.02L149.76-23.02L149.76-23.02Q151.49-24.24 153.07-24.24zM151.20-18L151.20-18L151.20-18Q148.66-18 146.26-16.61L146.26-16.61L146.26-12.48L146.45-5.62L146.45-5.62Q149.04-5.18 150.38-5.18L150.38-5.18L150.38-5.18Q154.99-5.18 154.99-11.59L154.99-11.59L154.99-11.59Q154.99-18 151.20-18" fill="#32a0da" stroke="none" stroke-width="none" transform="translate(-78.26669311523438,13.509005218505855)" style="fill: rgb(50, 160, 218);"></path></g></g>
</g>
<style id="spin-cda7c831-e930-4a3d-994b-c3010004db9a" data-anikit="">@keyframes spin-cda7c831-e930-4a3d-994b-c3010004db9a
{
  0% {
    animation-timing-function: cubic-bezier(0.5856,0.0703,0.4143,0.9297);
    transform: rotate(0deg);
  }
  100% {
    transform: rotate(360deg);
  }
}</style><style id="spin-cda7c831-e930-4a3d-994b-c3010004db9a" data-anikit="">@keyframes spin-cda7c831-e930-4a3d-994b-c3010004db9a
{
  0% {
    animation-timing-function: cubic-bezier(0.5856,0.0703,0.4143,0.9297);
    transform: rotate(0deg);
  }
  100% {
    transform: rotate(360deg);
  }
}</style></svg>